<?xml version="1.0" encoding="UTF-8" standalone="no"?>
<!-- Created with Inkscape (http://www.inkscape.org/) -->

<svg
   xmlns:dc="http://purl.org/dc/elements/1.1/"
   xmlns:cc="http://creativecommons.org/ns#"
   xmlns:rdf="http://www.w3.org/1999/02/22-rdf-syntax-ns#"
   xmlns:svg="http://www.w3.org/2000/svg"
   xmlns="http://www.w3.org/2000/svg"
   xmlns:sodipodi="http://sodipodi.sourceforge.net/DTD/sodipodi-0.dtd"
   xmlns:inkscape="http://www.inkscape.org/namespaces/inkscape"
   width="210mm"
   height="297mm"
   viewBox="0 0 210 297"
   version="1.1"
   id="svg8"
   inkscape:version="0.92.3 (2405546, 2018-03-11)"
   sodipodi:docname="Shape 1.svg">
  <sodipodi:namedview
     id="base"
     pagecolor="#ffffff"
     bordercolor="#666666"
     borderopacity="1.0"
     inkscape:pageopacity="0.0"
     inkscape:pageshadow="2"
     inkscape:zoom="0.35"
     inkscape:cx="494.28571"
     inkscape:cy="594.28571"
     inkscape:document-units="mm"
     inkscape:current-layer="layer1"
     showgrid="false"
     inkscape:window-width="1440"
     inkscape:window-height="851"
     inkscape:window-x="0"
     inkscape:window-y="0"
     inkscape:window-maximized="1" />
  <defs
     id="defs2" />
  <metadata
     id="metadata5">
    <rdf:RDF>
      <cc:Work
         rdf:about="">
        <dc:format>image/svg+xml</dc:format>
        <dc:type
           rdf:resource="http://purl.org/dc/dcmitype/StillImage" />
        <dc:title></dc:title>
      </cc:Work>
    </rdf:RDF>
  </metadata>
  <g
     inkscape:label="Capa 1"
     inkscape:groupmode="layer"
     id="layer1">
    <path
       id="path3799"
       d="m 94.494046,137.11607 c -3.809726,0 -7.61467,-0.2848 -10.942367,-0.7766 -3.327698,-0.4918 -6.17007,-1.18657 -8.189791,-1.88193 -2.019721,-0.69536 -3.212689,-1.3847 -3.469975,-1.82292 -0.257287,-0.43823 0.420029,-0.61856 1.88942,-0.35626 1.469391,0.2623 3.725057,0.97168 6.425851,2.16615 2.700795,1.19447 5.838151,2.87438 8.982495,4.8941 3.144345,2.01973 6.287135,4.37516 9.041505,6.76567 2.754366,2.39051 5.114506,4.80876 6.846196,6.88679 1.73169,2.07804 2.83359,3.80765 3.27897,4.87278 0.44538,1.06513 0.23756,1.45948 -0.4578,1.03021 -0.69536,-0.42926 -1.87164,-1.68431 -3.24705,-3.68959 -1.37542,-2.00528 -2.94244,-4.75793 -4.41183,-7.95902 -1.469395,-3.20108 -2.83535,-6.84344 -3.903445,-10.48142 -1.068094,-3.63798 -1.836206,-7.26228 -2.26547,-10.40662 -0.429264,-3.14435 -0.521855,-5.8002 -0.393911,-7.61738 0.127945,-1.81718 0.470864,-2.79062 0.817202,-2.79062 0.346339,0 0.689258,0.97344 0.817203,2.79062 0.127944,1.81718 0.03535,4.47303 -0.393911,7.61738 -0.429264,3.14434 -1.197376,6.76864 -2.26547,10.40662 -1.068095,3.63798 -2.43405,7.28034 -3.903441,10.48142 -1.469391,3.20109 -3.036418,5.95374 -4.411831,7.95902 -1.375413,2.00528 -2.55169,3.26033 -3.247049,3.68959 -0.69536,0.42927 -0.903187,0.0349 -0.457803,-1.03021 0.445383,-1.06513 1.547275,-2.79474 3.278969,-4.87278 1.731694,-2.07803 4.091827,-4.49628 6.846196,-6.88679 2.75437,-2.39051 5.89716,-4.74594 9.041505,-6.76567 3.144346,-2.01972 6.281696,-3.69963 8.982496,-4.8941 2.70079,-1.19447 4.95646,-1.90385 6.42585,-2.16615 1.46939,-0.2623 2.14671,-0.082 1.88942,0.35626 -0.25729,0.43822 -1.45025,1.12756 -3.46998,1.82292 -2.01972,0.69536 -4.86209,1.39013 -8.18979,1.88193 -3.32769,0.4918 -7.132637,0.7766 -10.942364,0.7766 z"
       style="fill:none;stroke:#000000;stroke-width:0.26458332"
       inkscape:connector-curvature="0" />
  </g>
</svg>
