# Created by Kenney (www.kenney.nl)

mtllib gun.mtl

v 4 5 -0.5
v 4 5 0.5
v 3 4.5 -0.5
v 3 4.5 0.5
v 3 4 0.5
v 3.5 4 0.5
v 3 4 -0.5
v 3.5 4 -0.5
v 0 1 -0.5
v 0 1 0.5
v -0.5 1 -0.5
v -0.5 1 0.5
v 0 0.5 -0.5
v 0 0.5 0.5
v -1 0 0.5
v -1 0 -0.5
v 0 0 -0.5
v 0 -0.5 -0.5
v 0 0 0.5
v 0 -0.5 0.5
v -1 -0.5 0.5
v -1 -0.5 -0.5
v -1.5 0 0.5
v -1.5 0 -0.5
v -1.5 1 -0.5
v -1 1 -0.5
v -1.5 1 0.5
v -1 1 0.5
v -7 4 1
v -7 4 -1
v -8 4 1
v -8 4 -1
v -8 5 -1
v -8 5 1
v -7 5 -1
v -7 5 1
v 3 1 0.5
v 3 1 -0.5
v 2 1 0.5
v 2 1 -0.5
v 2 4 -0.5
v 2 4 0.5
v 1 3 0.5
v 1 3 -0.5
v 0 3 0.5
v 0 3 -0.5
v 0 4 -0.5
v 0 4 0.5
v 1 4 -0.5
v 1 4 0.5
v -1 3 0.5
v -1 3 -0.5
v -7 3 0.5
v -7 3 -0.5
v -7 4 -0.5
v -7 4 0.5
v -1 4 -0.5
v -1 4 0.5
v -7 3 1.5
v -7 3 -1.5
v -8 3 1.5
v -8 3 -1.5
v -8 4 -1.5
v -8 4 1.5
v -7 4 -1.5
v -7 4 1.5
v 2 0 0.5
v 2 0 -0.5
v 1 0 0.5
v 1 0 -0.5
v 2 3 -0.5
v 2 3 0.5
v -2 2 0.5
v -2 2 -0.5
v -3 2 0.5
v -3 2 -0.5
v -3 3 -0.5
v -3 3 0.5
v -2 3 -0.5
v -2 3 0.5
v -7 2 1
v -7 2 -1
v -8 2 1
v -8 2 -1
v -8 3 -1
v -8 3 1
v -7 3 -1
v -7 3 1
v 4 1 0.5
v 4 1 -0.5
v 3 2 -0.5
v 3 2 0.5
v 4 2 -0.5
v 4 2 0.5
v 0 2 -0.5
v 0 2 0.5
v 1 2 -0.5
v 1 2 0.5
v -2 1 0.5
v -2 1 -0.5
v -1 2 -0.5
v -1 2 0.5
v 2 3 1
v 2 3 -1
v 1 3 1
v 1 3 -1
v 1 4 -1
v 1 4 1
v 2 4 -1
v 2 4 1
v 0 3 1
v 0 3 -1
v -1 3 1
v -1 3 -1
v -1 4 -1
v -1 4 1
v 0 4 -1
v 0 4 1
v 1 2 1
v 1 2 -1
v 0 2 1
v 0 2 -1
v -1 2 1
v -1 2 -1
v -2 2 1
v -2 2 -1
v -2 3 -1
v -2 3 1
v 4 0 1.5
v 4 0 -1.5
v 2 0 1.5
v 2 0 -1.5
v 2 1 -1.5
v 2 1 1.5
v 4 1 -1.5
v 4 1 1.5
v 5 -4 1.5
v 5 -4 -1.5
v 4 -4 1.5
v 4 -4 -1.5
v 5 0 -1.5
v 5 0 1.5
v 3 -3 1.5
v 3 -3 -1.5
v 2 -3 1.5
v 2 -3 -1.5
v 3 0 -1.5
v 3 0 1.5
v 2 -1 1.5
v 2 -1 -1.5
v 1 -1 1.5
v 1 -1 -1.5
v 1 0 -1.5
v 1 0 1.5
v 3 -4 1.5
v 3 -4 -1.5
v 3 -1 -1.5
v 3 -1 1.5
v 4 -1 -1.5
v 4 -1 1.5
v 4 -1 1
v 4 -1 -1
v 3 -1 1
v 3 -1 -1
v 3 0 -1
v 3 0 1
v 4 0 -1
v 4 0 1

vn -0.4472136 0.8944272 0
vn 0 0 1
vn -1 0 0
vn 0.8944272 -0.4472136 0
vn 0 0 -1
vn 0 -1 0
vn 0 1 0
vn 1 0 0
vn -0.8944272 0.4472136 0
vn 0.4472136 -0.8944272 0

vt 0 0
vt NaN 0
vt NaN 0
vt NaN 0
vt NaN 0
vt NaN 0
vt NaN 0
vt NaN 0
vt NaN 0
vt NaN 0
vt NaN 0
vt NaN 0
vt NaN 0
vt NaN 0
vt NaN 0
vt NaN 0
vt NaN 0
vt NaN 0
vt 0 NaN
vt 0 NaN
vt 0 NaN
vt 0 NaN
vt 0 NaN
vt 0 NaN
vt 0 NaN
vt 0 NaN
vt 0 NaN
vt 0 NaN
vt 0 NaN
vt 0 NaN
vt 0 NaN
vt 0 NaN
vt 0 NaN
vt 0 NaN
vt 0 NaN
vt 0 NaN
vt 0 NaN
vt 0 NaN
vt 0 NaN
vt 0 NaN
vt 0 NaN
vt 0 NaN
vt 0 NaN
vt 0 NaN
vt 0 NaN
vt 0 NaN
vt 0 NaN
vt 0 NaN
vt 0 NaN
vt 0 NaN
vt 0 NaN
vt 0 NaN
vt 0 NaN
vt 0 NaN
vt 0 NaN
vt 0 NaN
vt 0 NaN
vt 0 NaN
vt 0 NaN
vt 0 NaN
vt 0 NaN
vt 0 NaN
vt 0 NaN
vt 0 NaN
vt 0 NaN
vt 0 NaN
vt 0 NaN
vt 0 NaN
vt 0 NaN
vt 0 NaN
vt 0 NaN
vt 0 NaN
vt 0 NaN
vt 0 NaN
vt 0 NaN
vt 0 NaN
vt 0 NaN
vt 0 NaN
vt 0 NaN
vt 0 NaN
vt 0 NaN
vt 0 NaN
vt 0 NaN
vt 0 NaN
vt 0 NaN
vt 0 NaN
vt 0 NaN
vt 0 NaN
vt 0 NaN
vt 0 NaN
vt 0 NaN
vt 0 NaN
vt 0 NaN
vt 0 NaN
vt 0 NaN
vt 0 NaN
vt 0 NaN
vt 0 NaN
vt 0 NaN
vt 0 NaN
vt 0 NaN
vt 0 NaN
vt 0 NaN
vt 0 NaN
vt 0 NaN
vt 0 NaN
vt 0 NaN
vt 0 NaN
vt 0 NaN
vt 0 NaN
vt 0 NaN
vt 0 NaN
vt 0 NaN
vt 0 NaN
vt 0 NaN
vt 0 NaN
vt 0 NaN
vt 0 NaN
vt 0 NaN
vt 0 NaN
vt 0 NaN
vt 0 NaN
vt 0 NaN
vt 0 NaN
vt 0 NaN
vt 0 NaN
vt 0 NaN
vt 0 NaN
vt 0 NaN
vt 0 NaN
vt 0 NaN
vt 0 NaN
vt 0 NaN
vt 0 NaN
vt 0 NaN
vt 0 NaN
vt 0 NaN
vt 0 NaN
vt 0 NaN
vt 0 NaN
vt 0 NaN
vt 0 NaN
vt 0 NaN
vt 0 NaN
vt 0 NaN
vt 0 NaN
vt 0 NaN
vt 0 NaN
vt 0 NaN
vt 0 NaN
vt 0 NaN
vt 0 NaN
vt 0 NaN
vt 0 NaN
vt 0 NaN
vt 0 NaN
vt 0 NaN
vt 0 NaN
vt 0 NaN
vt 0 NaN
vt 0 NaN
vt 0 NaN
vt 0 NaN
vt 0 NaN
vt 0 NaN
vt 0 NaN
vt 0 NaN
vt 0 NaN
vt 0 NaN
vt 0 NaN
vt 0 NaN
vt 0 NaN
vt 0 NaN
vt 0 NaN
vt 0 NaN
vt 0 NaN
vt 0 NaN
vt 0 NaN
vt 0 NaN
vt 0 NaN
vt 0 NaN
vt 0 NaN
vt 0 NaN
vt 0 NaN
vt 0 NaN
vt 0 NaN
vt 0 NaN
vt 0 NaN
vt 0 NaN
vt 0 NaN
vt 0 NaN
vt 0 NaN
vt 0 NaN
vt 0 NaN
vt 0 NaN
vt 0 NaN
vt 0 NaN
vt 0 NaN
vt 0 NaN
vt 0 NaN
vt 0 NaN
vt 0 NaN
vt 0 NaN
vt 0 NaN
vt 0 NaN
vt 0 NaN
vt 0 NaN
vt 0 NaN
vt 0 NaN
vt 0 NaN
vt 0 NaN
vt 0 NaN
vt 0 NaN
vt 0 NaN
vt 0 NaN
vt 0 NaN
vt 0 NaN
vt 0 NaN
vt 0 NaN
vt 0 NaN
vt 0 NaN
vt 0 NaN
vt 0 NaN
vt 0 NaN
vt 0 NaN
vt 0 NaN
vt 0 NaN
vt 0 NaN
vt 0 NaN
vt 0 NaN
vt 0 NaN
vt 0 NaN
vt 0 NaN
vt 0 NaN
vt 0 NaN
vt 0 NaN
vt 0 NaN
vt 0 NaN
vt 0 NaN
vt 0 NaN
vt 0 NaN
vt 0 NaN
vt 0 NaN
vt 0 NaN
vt 0 NaN
vt 0 NaN
vt 0 NaN
vt 0 NaN
vt 0 NaN
vt 0 NaN
vt 0 NaN
vt 0 NaN
vt 0 NaN
vt 0 NaN
vt 0 NaN
vt 0 NaN
vt 0 NaN
vt 0 NaN
vt 0 NaN
vt 0 NaN
vt 0 NaN
vt 0 NaN
vt 0 NaN
vt 0 NaN
vt 0 NaN
vt 0 NaN
vt 0 NaN
vt 0 NaN

usemtl color14

f 3/1/1 2/2/1 1/1/1
f 2/2/1 3/1/1 4/1/1
f 6/1/2 4/3/2 5/1/2
f 4/3/2 6/1/2 2/1/2
f 5/1/3 3/4/3 7/1/3
f 3/4/3 5/1/3 4/1/3
f 1/1/4 6/5/4 8/1/4
f 6/5/4 1/1/4 2/1/4
f 3/1/5 8/6/5 7/1/5
f 8/6/5 3/1/5 1/1/5
f 5/1/6 8/7/6 6/1/6
f 8/7/6 5/1/6 7/1/6
f 11/1/7 10/8/7 9/1/7
f 10/8/7 11/1/7 12/1/7
f 10/1/8 13/9/8 9/1/8
f 13/9/8 10/1/8 14/1/8
f 14/1/2 12/10/2 15/1/2
f 12/10/2 14/1/2 10/1/2
f 16/1/9 12/11/9 11/1/9
f 12/11/9 16/1/9 15/1/9
f 11/1/5 13/12/5 16/1/5
f 13/12/5 11/1/5 9/1/5
f 15/1/10 13/13/10 14/1/10
f 13/13/10 15/1/10 16/1/10
f 19/1/8 18/14/8 17/1/8
f 18/14/8 19/1/8 20/1/8
f 16/1/7 19/15/7 17/1/7
f 19/15/7 16/1/7 15/1/7
f 21/1/6 18/16/6 20/1/6
f 18/16/6 21/1/6 22/1/6
f 16/1/5 18/17/5 22/1/5
f 18/17/5 16/1/5 17/1/5
f 21/1/3 16/18/3 22/1/3
f 16/18/3 21/1/3 15/1/3
f 20/1/2 15/1/2 21/1/2
f 15/1/2 20/1/2 19/1/2
f 23/1/6 16/1/6 15/19/6
f 16/1/6 23/1/6 24/20/6
f 25/1/5 16/1/5 24/21/5
f 16/1/5 25/1/5 26/22/5
f 23/1/3 25/1/3 24/23/3
f 25/1/3 23/1/3 27/24/3
f 25/1/7 28/1/7 26/25/7
f 28/1/7 25/1/7 27/26/7
f 15/1/2 27/1/2 23/27/2
f 27/1/2 15/1/2 28/28/2
f 28/1/8 16/1/8 26/29/8
f 16/1/8 28/1/8 15/30/8
f 31/1/6 30/1/6 29/31/6
f 30/1/6 31/1/6 32/32/6
f 31/1/3 33/1/3 32/33/3
f 33/1/3 31/1/3 34/34/3
f 33/1/5 30/1/5 32/35/5
f 30/1/5 33/1/5 35/36/5
f 36/1/2 31/1/2 29/37/2
f 31/1/2 36/1/2 34/38/2
f 36/1/8 30/1/8 35/39/8
f 30/1/8 36/1/8 29/40/8
f 33/1/7 36/1/7 35/41/7
f 36/1/7 33/1/7 34/42/7
f 31/1/6 30/1/6 29/31/6
f 30/1/6 31/1/6 32/32/6
f 31/1/3 33/1/3 32/33/3
f 33/1/3 31/1/3 34/34/3
f 33/1/5 30/1/5 32/35/5
f 30/1/5 33/1/5 35/36/5
f 36/1/2 31/1/2 29/37/2
f 31/1/2 36/1/2 34/38/2
f 36/1/8 30/1/8 35/39/8
f 30/1/8 36/1/8 29/40/8
f 33/1/7 36/1/7 35/41/7
f 36/1/7 33/1/7 34/42/7
f 39/1/6 38/1/6 37/43/6
f 38/1/6 39/1/6 40/44/6
f 39/1/3 41/1/3 40/45/3
f 41/1/3 39/1/3 42/46/3
f 41/1/5 38/1/5 40/47/5
f 38/1/5 41/1/5 7/1/5
f 5/1/2 39/1/2 37/48/2
f 39/1/2 5/1/2 42/49/2
f 5/1/8 38/1/8 7/50/8
f 38/1/8 5/1/8 37/51/8
f 41/1/7 5/1/7 7/52/7
f 5/1/7 41/1/7 42/53/7
f 45/1/6 44/1/6 43/54/6
f 44/1/6 45/1/6 46/55/6
f 45/1/3 47/1/3 46/56/3
f 47/1/3 45/1/3 48/57/3
f 47/1/5 44/1/5 46/58/5
f 44/1/5 47/1/5 49/59/5
f 50/1/2 45/1/2 43/60/2
f 45/1/2 50/1/2 48/61/2
f 50/1/8 44/1/8 49/62/8
f 44/1/8 50/1/8 43/63/8
f 47/1/7 50/1/7 49/64/7
f 50/1/7 47/1/7 48/65/7
f 53/1/6 52/1/6 51/66/6
f 52/1/6 53/1/6 54/67/6
f 53/1/3 55/1/3 54/68/3
f 55/1/3 53/1/3 56/69/3
f 55/1/5 52/1/5 54/70/5
f 52/1/5 55/1/5 57/71/5
f 58/1/2 53/1/2 51/72/2
f 53/1/2 58/1/2 56/73/2
f 58/1/8 52/1/8 57/74/8
f 52/1/8 58/1/8 51/75/8
f 55/1/7 58/1/7 57/76/7
f 58/1/7 55/1/7 56/77/7
f 61/1/6 60/1/6 59/78/6
f 60/1/6 61/1/6 62/79/6
f 61/1/3 63/1/3 62/80/3
f 63/1/3 61/1/3 64/81/3
f 63/1/5 60/1/5 62/82/5
f 60/1/5 63/1/5 65/83/5
f 66/1/2 61/1/2 59/84/2
f 61/1/2 66/1/2 64/85/2
f 66/1/8 60/1/8 65/86/8
f 60/1/8 66/1/8 59/87/8
f 63/1/7 66/1/7 65/88/7
f 66/1/7 63/1/7 64/89/7
f 69/1/6 68/1/6 67/90/6
f 68/1/6 69/1/6 70/91/6
f 69/1/3 44/1/3 70/92/3
f 44/1/3 69/1/3 43/93/3
f 44/1/5 68/1/5 70/94/5
f 68/1/5 44/1/5 71/95/5
f 72/1/2 69/1/2 67/96/2
f 69/1/2 72/1/2 43/60/2
f 72/1/8 68/1/8 71/97/8
f 68/1/8 72/1/8 67/98/8
f 44/1/7 72/1/7 71/99/7
f 72/1/7 44/1/7 43/100/7
f 28/1/6 9/1/6 10/101/6
f 9/1/6 28/1/6 26/102/6
f 28/1/3 52/1/3 26/103/3
f 52/1/3 28/1/3 51/104/3
f 52/1/5 9/1/5 26/22/5
f 9/1/5 52/1/5 46/58/5
f 45/1/2 28/28/2 10/1/2
f 28/28/2 45/1/2 51/72/2
f 45/1/8 9/1/8 46/105/8
f 9/1/8 45/1/8 10/1/8
f 52/1/7 45/1/7 46/106/7
f 45/1/7 52/1/7 51/107/7
f 75/1/6 74/1/6 73/108/6
f 74/1/6 75/1/6 76/109/6
f 75/1/3 77/1/3 76/110/3
f 77/1/3 75/1/3 78/111/3
f 77/1/5 74/1/5 76/112/5
f 74/1/5 77/1/5 79/113/5
f 80/1/2 75/1/2 73/114/2
f 75/1/2 80/1/2 78/115/2
f 80/1/8 74/1/8 79/116/8
f 74/1/8 80/1/8 73/117/8
f 77/1/7 80/1/7 79/118/7
f 80/1/7 77/1/7 78/119/7
f 83/1/6 82/1/6 81/120/6
f 82/1/6 83/1/6 84/121/6
f 83/1/3 85/1/3 84/122/3
f 85/1/3 83/1/3 86/123/3
f 85/1/5 82/1/5 84/124/5
f 82/1/5 85/1/5 87/125/5
f 88/1/2 83/1/2 81/126/2
f 83/1/2 88/1/2 86/127/2
f 88/1/8 82/1/8 87/128/8
f 82/1/8 88/1/8 81/129/8
f 85/1/7 88/1/7 87/130/7
f 88/1/7 85/1/7 86/131/7
f 37/43/6 90/1/6 89/132/6
f 90/1/6 37/43/6 38/1/6
f 37/1/3 91/1/3 38/133/3
f 91/1/3 37/1/3 92/134/3
f 91/1/5 90/1/5 38/1/5
f 90/1/5 91/1/5 93/135/5
f 94/1/2 37/48/2 89/136/2
f 37/48/2 94/1/2 92/137/2
f 94/1/8 90/1/8 93/138/8
f 90/1/8 94/1/8 89/139/8
f 91/1/7 94/1/7 93/140/7
f 94/1/7 91/1/7 92/141/7
f 19/1/6 70/91/6 69/1/6
f 70/91/6 19/1/6 17/142/6
f 19/1/3 95/1/3 17/143/3
f 95/1/3 19/1/3 96/144/3
f 95/1/5 70/94/5 17/1/5
f 70/94/5 95/1/5 97/145/5
f 98/1/2 19/1/2 69/1/2
f 19/1/2 98/1/2 96/146/2
f 98/1/8 70/1/8 97/147/8
f 70/1/8 98/1/8 69/148/8
f 95/1/7 98/1/7 97/149/7
f 98/1/7 95/1/7 96/150/7
f 99/1/6 26/102/6 28/1/6
f 26/102/6 99/1/6 100/151/6
f 99/1/3 74/1/3 100/152/3
f 74/1/3 99/1/3 73/153/3
f 74/1/5 26/22/5 100/154/5
f 26/22/5 74/1/5 101/155/5
f 102/1/2 99/1/2 28/28/2
f 99/1/2 102/1/2 73/114/2
f 102/1/8 26/29/8 101/156/8
f 26/29/8 102/1/8 28/1/8
f 74/1/7 102/1/7 101/157/7
f 102/1/7 74/1/7 73/158/7

usemtl color13

f 105/1/6 104/1/6 103/159/6
f 104/1/6 105/1/6 106/160/6
f 105/1/3 107/1/3 106/161/3
f 107/1/3 105/1/3 108/162/3
f 107/1/5 104/1/5 106/163/5
f 104/1/5 107/1/5 109/164/5
f 110/1/2 105/1/2 103/165/2
f 105/1/2 110/1/2 108/166/2
f 110/1/8 104/1/8 109/167/8
f 104/1/8 110/1/8 103/168/8
f 107/1/7 110/1/7 109/169/7
f 110/1/7 107/1/7 108/170/7
f 113/1/6 112/1/6 111/171/6
f 112/1/6 113/1/6 114/172/6
f 113/1/3 115/1/3 114/173/3
f 115/1/3 113/1/3 116/174/3
f 115/1/5 112/1/5 114/175/5
f 112/1/5 115/1/5 117/176/5
f 118/1/2 113/1/2 111/177/2
f 113/1/2 118/1/2 116/178/2
f 118/1/8 112/1/8 117/179/8
f 112/1/8 118/1/8 111/180/8
f 115/1/7 118/1/7 117/181/7
f 118/1/7 115/1/7 116/182/7
f 121/1/6 120/1/6 119/183/6
f 120/1/6 121/1/6 122/184/6
f 121/1/3 112/1/3 122/185/3
f 112/1/3 121/1/3 111/186/3
f 112/1/5 120/1/5 122/187/5
f 120/1/5 112/1/5 106/163/5
f 105/1/2 121/1/2 119/188/2
f 121/1/2 105/1/2 111/177/2
f 105/1/8 120/1/8 106/189/8
f 120/1/8 105/1/8 119/190/8
f 112/1/7 105/1/7 106/191/7
f 105/1/7 112/1/7 111/192/7
f 125/1/6 124/1/6 123/193/6
f 124/1/6 125/1/6 126/194/6
f 125/1/3 127/1/3 126/195/3
f 127/1/3 125/1/3 128/196/3
f 127/1/5 124/1/5 126/197/5
f 124/1/5 127/1/5 114/175/5
f 113/1/2 125/1/2 123/198/2
f 125/1/2 113/1/2 128/199/2
f 113/1/8 124/1/8 114/200/8
f 124/1/8 113/1/8 123/201/8
f 127/1/7 113/1/7 114/202/7
f 113/1/7 127/1/7 128/203/7

usemtl color2

f 131/1/6 130/1/6 129/204/6
f 130/1/6 131/1/6 132/205/6
f 131/1/3 133/1/3 132/206/3
f 133/1/3 131/1/3 134/207/3
f 133/1/5 130/1/5 132/208/5
f 130/1/5 133/1/5 135/209/5
f 136/1/2 131/1/2 129/210/2
f 131/1/2 136/1/2 134/211/2
f 136/1/8 130/1/8 135/212/8
f 130/1/8 136/1/8 129/213/8
f 133/1/7 136/1/7 135/214/7
f 136/1/7 133/1/7 134/215/7
f 139/1/6 138/1/6 137/216/6
f 138/1/6 139/1/6 140/217/6
f 139/1/3 130/1/3 140/218/3
f 130/1/3 139/1/3 129/219/3
f 130/1/5 138/1/5 140/220/5
f 138/1/5 130/1/5 141/221/5
f 142/1/2 139/1/2 137/222/2
f 139/1/2 142/1/2 129/210/2
f 142/1/8 138/1/8 141/223/8
f 138/1/8 142/1/8 137/224/8
f 130/1/7 142/1/7 141/225/7
f 142/1/7 130/1/7 129/226/7
f 145/1/6 144/1/6 143/227/6
f 144/1/6 145/1/6 146/228/6
f 145/1/3 132/206/3 146/229/3
f 132/206/3 145/1/3 131/1/3
f 132/208/5 144/1/5 146/230/5
f 144/1/5 132/208/5 147/231/5
f 148/1/2 145/1/2 143/232/2
f 145/1/2 148/1/2 131/1/2
f 148/1/8 144/1/8 147/233/8
f 144/1/8 148/1/8 143/234/8
f 132/1/7 148/1/7 147/235/7
f 148/1/7 132/1/7 131/236/7
f 151/1/6 150/1/6 149/237/6
f 150/1/6 151/1/6 152/238/6
f 151/1/3 153/1/3 152/239/3
f 153/1/3 151/1/3 154/240/3
f 153/1/5 150/1/5 152/241/5
f 150/1/5 153/1/5 132/208/5
f 131/1/2 151/1/2 149/242/2
f 151/1/2 131/1/2 154/243/2
f 131/1/8 150/1/8 132/244/8
f 150/1/8 131/1/8 149/245/8
f 153/1/7 131/236/7 132/1/7
f 131/236/7 153/1/7 154/246/7
f 155/1/6 140/217/6 139/1/6
f 140/217/6 155/1/6 156/247/6
f 155/1/3 157/1/3 156/248/3
f 157/1/3 155/1/3 158/249/3
f 157/1/5 140/220/5 156/250/5
f 140/220/5 157/1/5 159/251/5
f 160/1/2 155/1/2 139/1/2
f 155/1/2 160/1/2 158/252/2
f 160/1/8 140/1/8 159/253/8
f 140/1/8 160/1/8 139/254/8
f 157/1/7 160/1/7 159/255/7
f 160/1/7 157/1/7 158/256/7
f 151/1/6 150/1/6 149/237/6
f 150/1/6 151/1/6 152/238/6
f 151/1/3 153/1/3 152/239/3
f 153/1/3 151/1/3 154/240/3
f 153/1/5 150/1/5 152/241/5
f 150/1/5 153/1/5 132/208/5
f 131/1/2 151/1/2 149/242/2
f 151/1/2 131/1/2 154/243/2
f 131/1/8 150/1/8 132/244/8
f 150/1/8 131/1/8 149/245/8
f 153/1/7 131/236/7 132/1/7
f 131/236/7 153/1/7 154/246/7

usemtl color5

f 163/1/6 162/1/6 161/257/6
f 162/1/6 163/1/6 164/258/6
f 163/1/3 165/1/3 164/259/3
f 165/1/3 163/1/3 166/260/3
f 165/1/5 162/1/5 164/261/5
f 162/1/5 165/1/5 167/262/5
f 168/1/2 163/1/2 161/263/2
f 163/1/2 168/1/2 166/264/2
f 168/1/8 162/1/8 167/265/8
f 162/1/8 168/1/8 161/266/8
f 165/1/7 168/1/7 167/267/7
f 168/1/7 165/1/7 166/268/7

