# Blender v2.79 (sub 0) OBJ File: ''
# www.blender.org
mtllib Rock.mtl
o Cube
v 0.046883 -0.477632 0.026226
v 0.936478 -0.687976 0.823900
v -0.861636 -0.622647 0.922936
v -0.869325 -0.513406 -0.835931
v -0.276385 -0.525301 -0.876669
v 0.904639 -0.583849 -0.870923
v 0.702863 0.522927 0.862538
v -0.216921 0.534452 0.655341
v -0.489399 0.453198 -0.677424
v 0.409270 0.543625 -0.862582
v 0.894425 0.447215 0.000000
v 0.158415 0.904758 -0.235593
vn -0.0468 -0.9775 -0.2055
vn -0.1811 -0.9818 -0.0569
vn 0.0972 -0.9933 -0.0621
vn -0.0160 -0.9982 0.0584
vn -0.0497 -0.9963 0.0704
vn 0.9996 0.0245 -0.0173
vn 0.0542 -0.0214 0.9983
vn -0.8696 0.4925 0.0344
vn -0.0636 0.1858 -0.9805
vn 0.0053 0.0097 -0.9999
vn 0.9636 0.1796 0.1982
vn -0.2038 0.3270 0.9228
vn -0.9264 0.3364 0.1689
vn -0.2140 0.1500 -0.9653
vn 0.8278 0.3668 -0.4246
vn 0.5182 0.8543 0.0401
vn -0.0690 0.9312 0.3580
vn -0.6042 0.7933 0.0752
vn -0.1946 0.8143 -0.5469
vn 0.5658 0.7919 -0.2297
usemtl Material
s off
f 1//1 2//1 3//1
f 2//2 1//2 6//2
f 1//3 3//3 4//3
f 1//4 4//4 5//4
f 1//5 5//5 6//5
f 2//6 6//6 11//6
f 3//7 2//7 7//7
f 4//8 3//8 8//8
f 5//9 4//9 9//9
f 6//10 5//10 10//10
f 2//11 11//11 7//11
f 3//12 7//12 8//12
f 4//13 8//13 9//13
f 5//14 9//14 10//14
f 6//15 10//15 11//15
f 7//16 11//16 12//16
f 8//17 7//17 12//17
f 9//18 8//18 12//18
f 10//19 9//19 12//19
f 11//20 10//20 12//20
