# Blender v2.79 (sub 0) OBJ File: ''
# www.blender.org
mtllib pot.mtl
o Circle_Circle.001
v 0.241704 -0.266811 -0.139548
v 0.241704 -0.266811 0.139548
v 0.357905 -0.041826 0.206637
v 0.357905 -0.041826 -0.206636
v 0.000000 -0.266811 0.279096
v -0.241704 -0.266811 0.139548
v -0.357905 -0.041826 0.206637
v 0.000000 -0.041826 0.413274
v -0.241704 -0.266811 -0.139548
v 0.000000 -0.266811 -0.279096
v 0.000000 -0.041826 -0.413273
v -0.357905 -0.041826 -0.206637
v 0.000000 0.183159 -0.413273
v -0.357905 0.183159 -0.206636
v 0.357905 0.183159 -0.206636
v 0.000000 0.183159 0.413274
v 0.357905 0.183159 0.206637
v -0.357905 0.183159 0.206637
v 0.108495 0.460640 0.062640
v 0.108495 0.460640 -0.062639
v -0.108495 0.460640 0.062640
v 0.000000 0.460640 0.125279
v 0.000000 0.460640 -0.125279
v -0.108495 0.460640 -0.062639
v 0.344725 0.543135 -0.199027
v 0.000000 0.543135 -0.398054
v 0.000000 0.543135 0.398055
v 0.344725 0.543135 0.199027
v -0.344725 0.543135 -0.199027
v -0.344725 0.543135 0.199028
v 0.173979 0.693124 0.100447
v 0.173979 0.693124 -0.100446
v -0.173979 0.693124 0.100447
v 0.000000 0.693124 0.200894
v 0.000000 0.693124 -0.200893
v -0.173979 0.693124 -0.100446
vn 0.8885 -0.4589 0.0000
vn -0.4442 -0.4589 0.7695
vn -0.4442 -0.4589 -0.7695
vn 0.4442 -0.4589 -0.7695
vn 0.4442 -0.4589 0.7695
vn -0.8885 -0.4589 0.0000
vn -0.5000 0.0000 -0.8660
vn 0.5000 0.0000 -0.8660
vn 0.5000 0.0000 0.8660
vn -1.0000 0.0000 0.0000
vn 1.0000 0.0000 0.0000
vn -0.5000 -0.0000 0.8660
vn 0.7437 0.6685 0.0000
vn -0.3719 0.6685 0.6441
vn -0.3719 0.6685 -0.6441
vn 0.3719 0.6685 -0.6441
vn 0.3719 0.6685 0.6441
vn -0.7437 0.6685 0.0000
vn 0.1648 -0.9441 -0.2855
vn 0.1648 -0.9441 0.2855
vn -0.3297 -0.9441 0.0000
vn 0.3297 -0.9441 0.0000
vn -0.1648 -0.9441 0.2855
vn -0.1648 -0.9441 -0.2855
vn 0.6600 0.7513 0.0000
vn -0.3300 0.7513 0.5715
vn -0.3300 0.7513 -0.5715
vn 0.3300 0.7513 -0.5715
vn 0.3300 0.7513 0.5715
vn -0.6600 0.7513 0.0000
vn 0.0000 -1.0000 0.0000
usemtl None
s 1
f 1//1 4//1 3//1 2//1
f 5//2 8//2 7//2 6//2
f 9//3 12//3 11//3 10//3
f 10//4 11//4 4//4 1//4
f 2//5 3//5 8//5 5//5
f 6//6 7//6 12//6 9//6
f 12//7 14//7 13//7 11//7
f 11//8 13//8 15//8 4//8
f 3//9 17//9 16//9 8//9
f 7//10 18//10 14//10 12//10
f 4//11 15//11 17//11 3//11
f 8//12 16//12 18//12 7//12
f 15//13 20//13 19//13 17//13
f 16//14 22//14 21//14 18//14
f 14//15 24//15 23//15 13//15
f 13//16 23//16 20//16 15//16
f 17//17 19//17 22//17 16//17
f 18//18 21//18 24//18 14//18
f 23//19 26//19 25//19 20//19
f 19//20 28//20 27//20 22//20
f 21//21 30//21 29//21 24//21
f 20//22 25//22 28//22 19//22
f 22//23 27//23 30//23 21//23
f 24//24 29//24 26//24 23//24
f 25//25 32//25 31//25 28//25
f 27//26 34//26 33//26 30//26
f 29//27 36//27 35//27 26//27
f 26//28 35//28 32//28 25//28
f 28//29 31//29 34//29 27//29
f 30//30 33//30 36//30 29//30
f 9//31 10//31 5//31 6//31
f 2//31 5//31 10//31 1//31
