#File written by LIBRIZOMUV. Compilation :Dec 13 2019,23:12:04
mtllib Enemy 01:mtl
#begin vertices
v 2.07213 0.663654 -1
v 2.07213 -0.77248 -1
v 2.07213 0.663654 1
v 2.07213 -0.77248 1
v 0.920592 0.663654 -1
v 0.920592 -0.77248 -1
v 0.920592 0.663654 1
v 0.920592 -0.77248 1
v 2.07213 -0.108826 -1.734577
v 0.920592 -0.08162 1.571338
v 2.07213 -0.08162 1.571338
v 0.920592 -0.108826 -1.734577
v 0.707107 -0.462511 0.707107
v 1 -0.462511 -0
v 0.707107 -0.462511 -0.707107
v 1 1.197088 -0
v 0.707107 1.197088 0.707107
v 0.088219 1.766989 0.511624
v 0.143448 1.682795 0.517187
v 0.707107 1.197088 -0.707107
v 0.528515 1.221844 -0.010705
v 0.366065 1.221844 0.381485
v 0.096409 1.602733 0.510558
v 0.366065 1.689362 0.381485
v 0.366065 1.221844 -0.402896
v 0.528515 2.156881 -0.010705
v 0.366065 2.156881 0.381485
v 0.528515 1.689362 -0.010705
v 0.366065 1.689362 -0.402896
v 0.366065 2.156881 -0.402896
v 0.091687 1.652063 1.835273
v 0.138725 1.732125 1.841902
v 0.083497 1.816319 1.836339
v -2.07213 0.663654 -1
v -2.07213 -0.77248 -1
v -2.07213 0.663654 1
v -2.07213 -0.77248 1
v -0.920592 0.663654 -1
v -0.920592 -0.77248 -1
v -0.920592 0.663654 1
v -0.920592 -0.77248 1
v -2.07213 -0.108826 -1.734577
v -0.920592 -0.08162 1.571338
v -2.07213 -0.08162 1.571338
v -0.920592 -0.108826 -1.734577
v 0 -0.462511 -1
v 0 1.852947 1.834585
v 0 1.803617 0.541507
v 0 -0.462511 1
v -0.707107 -0.462511 0.707107
v -1 -0.462511 -0
v -0.707107 -0.462511 -0.707107
v 0 -0.462512 -0
v -1 1.197088 -0
v -0.707107 1.197088 0.707107
v 0 1.197088 1
v -0.088219 1.766989 0.511624
v -0.143448 1.682795 0.517187
v 0 1.553364 0.556252
v 0 1.197088 -1
v -0.707107 1.197088 -0.707107
v -0.528515 1.221844 -0.010705
v -0.366065 1.221844 0.381485
v 0 1.221844 0.543936
v -0.096409 1.602733 0.510558
v 0 1.689362 -0.565347
v -0.366065 1.689362 0.381485
v 0 1.221844 -0.565347
v -0.366065 1.221844 -0.402896
v -0.528515 2.156881 -0.010705
v -0.366065 2.156881 0.381485
v 0 2.156881 0.543936
v 0 1.740116 1.844591
v -0.528515 1.689362 -0.010705
v -0.366065 1.689362 -0.402896
v 0 2.156881 -0.565347
v -0.366065 2.156881 -0.402896
v 0 2.156881 -0.010705
v -0.091687 1.652063 1.835273
v 0 1.602694 1.849331
v -0.138725 1.732125 1.841902
v -0.083497 1.816319 1.836339
#end vertices

#begin 187 textures vertices 
vt 0.2483518 0.5844717 0
vt 0.7316439 0.5366597 0
vt 0.1287509 0.7610539 0
vt 0.8824511 0.6874669 0
vt 0.76042 0.271116 0
vt 0.6359468 0.1818987 0
vt 0.3704423 0.197647 0
vt 0.7601933 0.008553877 0
vt 0.2240767 0.4734205 0
vt 0.3726126 0.0975307 0
vt 0.02878364 0.7669302 0
vt 0.6478329 0.2867946 0
vt 0.2549299 0.9282593 0
vt 0.2861631 0.8528556 0
vt 0.2549299 0.777452 0
vt 0.1988232 0.2093595 0
vt 0.1190408 0.2265637 0
vt 0.9891168 0.3031254 0
vt 0.979786 0.2977792 0
vt 0.2786056 0.1921552 0
vt 0.9224481 0.5540508 0
vt 0.7445933 0.7571807 0
vt 0.9718468 0.2918194 0
vt 0.7224716 0.8020994 0
vt 0.8851293 0.5796727 0
vt 0.7420034 0.8668148 0
vt 0.7011669 0.8473792 0
vt 0.7635017 0.8218084 0
vt 0.8043112 0.8414162 0
vt 0.7827872 0.8863354 0
vt 0.01185088 0.007205845 0
vt 0.01684008 0.01578824 0
vt 0.916146 0.4241977 0
vt 0.5118057 0.4135319 0
vt 0.3504271 0.6244417 0
vt 0.5071834 0.2003084 0
vt 0.5029411 0.004614487 0
vt 0.7646269 0.5573824 0
vt 0.7095438 0.7208357 0
vt 0.6403803 0.3840376 0
vt 0.6257086 0.001953125 0
vt 0.5142693 0.5271786 0
vt 0.6277805 0.0975307 0
vt 0.5050131 0.1001921 0
vt 0.8772139 0.573061 0
vt 0.1795263 0.7462189 0
vt 0.002045795 0.02869496 0
vt 0.9960559 0.3112345 0
vt 0.1795263 0.9594924 0
vt 0.1041226 0.9282593 0
vt 0.07288948 0.8528556 0
vt 0.1041226 0.777452 0
vt 0.1795263 0.8528556 0
vt 0.1615179 0.4546448 0
vt 0.2413003 0.471849 0
vt 0.03925839 0.243768 0
vt 0.8778626 0.01522219 0
vt 0.8871934 0.009876042 0
vt 0.6902214 0.7696514 0
vt 0.8177212 0.6119404 0
vt 0.08173551 0.4374405 0
vt 0.6494335 0.9253426 0
vt 0.6411117 0.8808464 0
vt 0.907564 0.4737023 0
vt 0.8951326 0.003916197 0
vt 0.8427603 0.8598714 0
vt 0.9196472 0.2456746 0
vt 0.8642992 0.8150262 0
vt 0.6867522 0.9509645 0
vt 0.3034326 0.2388938 0
vt 0.3207558 0.1970719 0
vt 0.6625479 0.8293396 0
vt 0.00204272 0.01661581 0
vt 0.8786171 0.2653835 0
vt 0.8378075 0.2849913 0
vt 0.6359468 0.1202435 0
vt 0.8593316 0.3299106 0
vt 0.6359468 0.06109826 0
vt 0.9681033 0.1249886 0
vt 0.8886576 0.4082941 0
vt 0.02412074 0.01578824 0
vt 0.03001075 0.02478555 0
vt 0.1615179 0.0363617 0
vt 0.03925839 0.2472384 0
vt 0.2413003 0.01915741 0
vt 0.08173551 0.05356599 0
vt 0.001953125 0.07077028 0
vt 0.2786056 0.2988513 0
vt 0.1988232 0.281647 0
vt 0.1190408 0.2644427 0
vt 0.8555652 0.001953125 0
vt 0.795621 0.774297 0
vt 0.3610684 0.6300597 0
vt 0.3633564 0.5245173 0
vt 0.36582 0.4108705 0
vt 0.8846665 0.09777122 0
vt 0.6694816 0.2882195 0
vt 0.6299509 0.197647 0
vt 0.7648535 0.2948203 0
vt 0.6370368 0.5245173 0
vt 0.8891 0.4681651 0
vt 0.6345731 0.4108705 0
vt 0.5587366 0.8716429 0
vt 0.3746846 0.001953125 0
vt 0.4719065 0.7848128 0
vt 0.001953125 0.6751725 0
vt 0.6227137 0.6340056 0
vt 0.6393247 0.6300597 0
vt 0.6448138 0.6234898 0
vt 0.4838359 0.632721 0
vt 0.3597918 0.1797486 0
vt 0.03900769 0.001953125 0
vt 0.9635988 0.2388769 0
vt 0.9357314 0.181822 0
vt 0.6376533 0.8042365 0
vt 0.9424996 0.1413063 0
vt 0.3583879 0.3160556 0
vt 0.907514 0.001953125 0
vt 0.0389181 0.01661581 0
vt 0.7289301 0.9442614 0
vt 0.001953125 0.4202362 0
vt 0.3210827 0.001953125 0
vt 0.8208735 0.348341 0
vt 0.3597918 0.2388938 0
vt 0.7993585 0.3034465 0
vt 0.7851896 0.7769599 0
vt 0.8162354 0.2401428 0
vt 0.7778195 0.2586013 0
vt 0.8429515 0.5729696 0
vt 0.8258834 0.7965677 0
vt 0.8569291 0.220535 0
vt 0.6643176 0.844994 0
vt 0.8975255 0.2007558 0
vt 0.9307698 0.5095547 0
vt 0.7063873 0.7382468 0
vt 0.9440449 0.2229732 0
vt 0.952967 0.2395356 0
vt 0.8709235 0.02333132 0
vt 0.9444925 0.232902 0
vt 0.6891517 0.7959605 0
vt 0.6785199 0.7953018 0
vt 0.6980738 0.7793981 0
vt 0.6976262 0.7893269 0
vt 0.9518973 0.2132265 0
vt 0.9594654 0.2898563 0
vt 0.9601642 0.1309484 0
vt 0.9068152 0.4188516 0
vt 0.03891502 0.02869496 0
vt 0.9508334 0.1362946 0
vt 0.01095007 0.02478555 0
vt 0.9244798 0.4292095 0
vt 0.8988761 0.4128918 0
vt 0.02910994 0.007205845 0
vt 0.001953125 0.001953125 0
vt 0.9783218 0.1203909 0
vt 0.9795708 0.2729148 0
vt 0.6359468 0.001953125 0
vt 0.9409519 0.2909543 0
vt 0.6749828 0.01927639 0
vt 0.6749828 0.1029203 0
vt 0.9001154 0.3103899 0
vt 0.3207558 0.2807158 0
vt 0.6923059 0.06109827 0
vt 0.3597918 0.298039 0
vt 0.8212453 0.9047659 0
vt 0.3210827 0.4890533 0
vt 0.5916116 0.8716262 0
vt 0.7541604 0.9832322 0
vt 0.98027 0.5003345 0
vt 0.9652662 0.5805598 0
vt 0.9342282 0.4329448 0
vt 0.6066154 0.9518515 0
vt 0.6738999 0.9980469 0
vt 0.8979817 0.6267551 0
vt 0.3583879 0.1749509 0
vt 0.4700279 0.8010238 0
vt 0.497452 0.004614487 0
vt 0.4431974 0.8927816 0
vt 0.4953801 0.1001921 0
vt 0.3432301 0.8869052 0
vt 0.4932098 0.2003084 0
vt 0.2236292 0.7103231 0
vt 0.4885875 0.4135319 0
vt 0.5165573 0.632721 0
vt 0.2479043 0.5992719 0
vt 0.4861238 0.5271786 0
vt 0.121554 0.4985903 0
#end 187 textures vertices 

#begin 46 normals 
vn 0 1 0
vn 0 0.6084 0.7936
vn -1 0 0
vn 0 -1 0
vn 1 -0 0
vn 0 0.6891 -0.7247
vn 0 -0.742 -0.6704
vn 0 -0.6373 0.7706
vn 0.3827 0 0.9239
vn 0.3827 0 -0.9239
vn 0.9239 0 0.3827
vn 0.9239 0 -0.3827
vn 0.0237 0.9982 -0.0559
vn 0.0212 0.0847 0.9962
vn 0.8366 0.5476 -0.0174
vn 0.0519 0.9984 0.0215
vn 0.077 -0.0253 0.9967
vn 0.8612 -0.5078 0.022
vn 0.0226 0.9983 0.0534
vn 0.0529 0.9984 -0.0219
vn 0.473 -0.8804 0.034
vn 0.4125 -0.0246 0.9106
vn 0.4056 0 -0.914
vn 0.3875 0.9213 -0.034
vn 0.4356 0.0527 0.8986
vn 0.3907 0.0121 0.9204
vn 0.444 -0.049 0.8947
vn -0.3827 0 0.9239
vn -0.3827 0 -0.9239
vn -0.9239 0 0.3827
vn -0.9239 0 -0.3827
vn -0.0237 0.9982 -0.0559
vn -0.0212 0.0847 0.9962
vn -0.8366 0.5476 -0.0174
vn -0.0519 0.9984 0.0215
vn -0.077 -0.0253 0.9967
vn -0.8612 -0.5078 0.022
vn -0.0226 0.9983 0.0534
vn -0.0529 0.9984 -0.0219
vn -0.473 -0.8804 0.034
vn -0.4125 -0.0246 0.9106
vn -0.4056 0 -0.914
vn -0.3875 0.9213 -0.034
vn -0.4356 0.0527 0.8986
vn -0.3907 0.0121 0.9204
vn -0.444 -0.049 0.8947
#end 46 normals 

#begin 84 faces
o Cube
usemtl Material
s off
f 1/183/1 5/95/1 7/7/1 3/181/1 
f 11/179/2 3/181/2 7/7/2 10/10/2 
f 10/91/3 7/96/3 5/5/3 12/12/3 
f 6/109/4 2/2/4 4/4/4 8/92/4 
f 9/9/5 1/1/5 3/3/5 11/11/5 
f 12/94/6 5/95/6 1/183/6 9/186/6 
f 6/93/7 12/94/7 9/186/7 2/110/7 
f 2/187/5 9/9/5 11/11/5 4/106/5 
f 8/8/3 10/91/3 12/12/3 6/6/3 
f 4/177/8 11/179/8 10/10/8 8/104/8 
f 46/46/4 15/15/4 53/53/4 
f 14/14/4 13/13/4 53/53/4 
f 15/15/4 14/14/4 53/53/4 
f 13/13/4 49/49/4 53/53/4 
f 49/87/9 13/86/9 17/17/9 56/56/9 
f 15/85/10 46/122/10 60/175/10 20/20/10 
f 13/86/11 14/83/11 16/16/11 17/17/11 
f 14/83/12 15/85/12 20/20/12 16/16/12 
f 20/174/13 60/60/13 68/129/13 25/25/13 
f 73/73/14 32/32/14 33/150/14 47/47/14 
f 19/19/15 18/18/15 33/33/15 32/147/15 
f 17/169/16 16/170/16 21/21/16 22/134/16 
f 80/154/17 31/31/17 32/32/17 73/73/17 
f 23/23/18 19/19/18 32/147/18 31/152/18 
f 56/171/19 17/169/19 22/134/19 64/64/19 
f 16/170/20 20/174/20 25/25/20 21/21/20 
f 28/28/12 29/29/12 30/30/12 26/26/12 
f 59/145/21 23/23/21 31/152/21 80/80/21 
f 64/135/22 22/22/22 23/142/22 59/59/22 
f 24/24/11 28/28/11 26/26/11 27/27/11 
f 29/29/23 66/66/23 76/165/23 30/30/23 
f 18/18/24 48/48/24 47/151/24 33/33/24 
f 24/24/25 27/27/25 18/140/25 19/143/25 
f 27/27/26 72/72/26 48/141/26 18/140/26 
f 22/22/27 24/24/27 19/143/27 23/142/27 
f 22/22/11 21/126/11 28/28/11 24/24/11 
f 72/157/1 27/159/1 78/78/1 
f 26/163/1 30/160/1 78/78/1 
f 25/130/23 68/68/23 66/66/23 29/29/23 
f 21/126/12 25/130/12 29/29/12 28/28/12 
f 27/159/1 26/163/1 78/78/1 
f 30/160/1 76/76/1 78/78/1 
f 34/34/1 36/36/1 40/98/1 38/102/1 
f 44/44/2 43/43/2 40/98/2 36/36/2 
f 43/97/5 45/45/5 38/38/5 40/40/5 
f 39/39/4 41/103/4 37/105/4 35/107/4 
f 42/185/3 44/178/3 36/180/3 34/182/3 
f 45/100/6 42/42/6 34/34/6 38/102/6 
f 39/108/7 35/184/7 42/42/7 45/100/7 
f 35/35/3 37/176/3 44/178/3 42/185/3 
f 41/99/5 39/101/5 45/45/5 43/97/5 
f 37/37/8 41/41/8 43/43/8 44/44/8 
f 46/46/4 53/53/4 52/52/4 
f 51/51/4 53/53/4 50/50/4 
f 52/52/4 53/53/4 51/51/4 
f 50/50/4 53/53/4 49/49/4 
f 49/117/28 56/166/28 55/55/28 50/88/28 
f 52/90/29 61/61/29 60/121/29 46/84/29 
f 50/88/30 55/55/30 54/54/30 51/89/30 
f 51/89/31 54/54/31 61/61/31 52/90/31 
f 61/173/32 69/69/32 68/120/32 60/168/32 
f 73/119/33 47/148/33 82/82/33 81/81/33 
f 58/58/34 81/146/34 82/149/34 57/57/34 
f 55/167/35 63/63/35 62/62/35 54/172/35 
f 80/112/36 73/119/36 81/81/36 79/153/36 
f 65/65/37 79/79/37 81/146/37 58/58/37 
f 56/115/38 64/132/38 63/63/38 55/167/38 
f 54/172/39 62/62/39 69/69/39 61/173/39 
f 74/74/31 70/161/31 77/77/31 75/75/31 
f 59/118/40 80/155/40 79/79/40 65/65/40 
f 64/114/41 59/144/41 65/136/41 63/133/41 
f 67/67/30 71/158/30 70/161/30 74/74/30 
f 75/75/42 77/77/42 76/123/42 66/125/42 
f 57/57/43 82/149/43 47/116/43 48/138/43 
f 67/67/44 58/139/44 57/137/44 71/158/44 
f 71/158/45 57/137/45 48/113/45 72/156/45 
f 63/133/46 65/136/46 58/139/46 67/67/46 
f 63/133/30 67/67/30 74/74/30 62/131/30 
f 72/111/1 78/124/1 71/71/1 
f 70/70/1 78/124/1 77/162/1 
f 69/127/42 75/75/42 66/125/42 68/128/42 
f 62/131/31 74/74/31 75/75/31 69/127/31 
f 71/71/1 78/124/1 70/70/1 
f 77/162/1 78/124/1 76/164/1 
#end 84 faces

#begin properties
#ZOMPROPERTIES_02 table {Mesh table {SymPlane table {Point vector3d 0 0 0 Normal vector3d 1 0 0 Threshold double 0.01 Enabled bool true EdgeID int -1 SymEdgeID int -1 UPos double 0.5 LocalMode bool false } RootGroup CSubMeshGroup {Children table {Tile_0_0 CSubMeshGroup {Children table {} BBoxUV box3d 0 0 0 0 0 0 BBox3D box3d 0 0 0 0 0 0 AreaUV double 0.60679 Area3D double 0 IsRoot bool false TopoStable table {Selected bool false Box box3d 0 1 0 1 0 1 U int 0 V int 0 NU int 0 NV int 0 Tiling vector3d 1 1 1 TileRatioMode string "1:1" } IsTile bool true PolyIDs ints { 0 1 9 5 6 2 8 3 4 7 10 12 11 13 55 53 54 52 14 16 17 15 18 25 21 24 19 22 20 31 23 27 26 30 38 39 35 34 32 33 28 29 36 40 37 41 42 43 51 47 48 44 50 45 46 49 56 58 59 57 60 67 63 66 61 64 62 73 65 69 68 72 80 71 74 75 76 70 77 81 78 82 79 83 } } } BBoxUV box3d 0 0 0 0 0 0 BBox3D box3d 0 0 0 0 0 0 AreaUV double 0 Area3D double 0 IsRoot bool true TopoStable table {Selected bool false Box box3d 0 1 0 1 0 1 U int 0 V int 0 NU int 1 NV int 1 Tiling vector3d 1 1 1 TileRatioMode string "1:1" Pack table {Rotate table {Mode int 2 Min double 0 Max double 180 Step double 0 } SpacingSize double 0.00390625 MarginSize double 0.001953125 Resolution int 200 Scaling table {Mode int 0 } LayoutScalingMode int 2 MaxMutations int 1 } } IsTile bool false PolyIDs ints { } } Maps table {Density table {PrimType string "Polygon" Size int 1 DefaultValue double 1 ScaleType string "Log" Mergeode string "Average" MinValue double 0.1 MaxValue double 4 Data doubles { r 84 1 } } Pin table {PrimType string "Vertex" Size int 1 DefaultValue double 0 ScaleType string "Normalized" Mergeode string "Max" MinValue double 0 MaxValue double 1 Data doubles { r 187 0 } } Protect table {PrimType string "Vertex" Size int 1 DefaultValue double 0 ScaleType string "Normalized" Mergeode string "Average" MinValue double -1 MaxValue double 1 Data doubles { r 187 0 } } } } }
#end properties

#begin 0 fatal error vertex (that RizomUV cannot handle)
#end 0 fatal error vertex (that RizomUV cannot handle)

#begin 0 error vertex
#end 0 error vertex
