#File written by LIBRIZOMUV. Compilation :Dec 13 2019,23:12:04
mtllib Enemy02:mtl
#begin vertices
v 1.98561 1 -1
v 0.879897 1 -1
v 0.879897 1 1
v 1.98561 1 1
v 1.98561 0.633829 1.621909
v 0.879897 0.633829 1.621909
v 0.879897 0.641701 -1.739993
v 0.879897 -1 -1
v 1.98561 -1 -1
v 1.98561 -1 1
v 0.879897 -1 1
v 1.98561 0.641701 -1.739993
v 0.879897 -0.704679 -1.677015
v 0.879897 0 -2.007651
v 1.98561 0 -2.007651
v 1.98561 -0.704679 -1.677015
v 1.98561 -0.015745 1.86595
v 1.98561 -0.649573 1.621909
v 0.879897 -0.649573 1.621909
v 0.879897 -0.015745 1.86595
v 0.829068 -0.41971 0.529922
v 0.787047 0.88908 1.34678
v 0 0.889566 1.639912
v 0 -0.435455 0.781835
v 0 1.535919 -1.248545
v 0 2.246077 -0.892046
v 0.750346 1.899697 -0.892047
v 0.812526 1.380225 -1.248545
v 0.750346 1.962675 0.734601
v 0.769671 1.397348 1.056959
v 0.129671 1.802679 1.198861
v 0.14563 1.678698 1.217071
v 0 -0.429744 -1.062539
v 0.750346 -0.403966 -0.829068
v 0 2.309055 0.734601
v 0.86843 0.913183 -1.569062
v 0 0.897439 -1.569062
v 0.159978 1.56723 1.233444
v 0 1.533909 1.3036
v 0.092228 1.682618 3.10875
v 0 1.642622 3.111887
v 0.090691 1.866597 3.108092
v 0.114675 1.76581 3.107078
v 0 1.852531 1.239623
v 0 1.903081 3.111887
v 0 1.757907 3.111887
v -1.98561 1 -1
v -1.98561 1 1
v -0.879897 1 1
v -0.879897 1 -1
v -1.98561 0.633829 1.621909
v -0.879897 0.633829 1.621909
v -0.879897 0.641701 -1.739993
v -0.879897 -1 -1
v -0.879897 -1 1
v -1.98561 -1 1
v -1.98561 -1 -1
v -1.98561 0.641701 -1.739993
v -0.879897 -0.704679 -1.677015
v -1.98561 -0.704679 -1.677015
v -1.98561 0 -2.007651
v -0.879897 0 -2.007651
v -1.98561 -0.649573 1.621909
v -1.98561 -0.015745 1.86595
v -0.879897 -0.649573 1.621909
v -0.879897 -0.015745 1.86595
v -0.829068 -0.41971 0.529922
v -0.787047 0.88908 1.34678
v -0.812526 1.380225 -1.248545
v -0.750346 1.899697 -0.892047
v -0.769671 1.397348 1.056959
v -0.750346 1.962675 0.734601
v -0.14563 1.678698 1.217071
v -0.129671 1.802679 1.198861
v -0.750346 -0.403966 -0.829068
v -0.86843 0.913183 -1.569062
v -0.159978 1.56723 1.233444
v -0.092228 1.682618 3.10875
v -0.114675 1.76581 3.107078
v -0.090691 1.866597 3.108092
#end vertices

#begin 194 textures vertices 
vt 0.5217553 0.2725656 0
vt 0.4718095 0.7477747 0
vt 0.02871378 0.2687263 0
vt 0.1295905 0.2581911 0
vt 0.1227141 0.1923487 0
vt 0.02183742 0.2028839 0
vt 0.4017043 0.7199732 0
vt 0.6398064 0.7760896 0
vt 0.6398528 0.1321753 0
vt 0.4994625 0.01407779 0
vt 0.7695301 0.9058133 0
vt 0.5948563 0.2911104 0
vt 0.06964464 0.6606465 0
vt 0.06222813 0.5896321 0
vt 0.1631049 0.5790968 0
vt 0.1705214 0.6501112 0
vt 0.3805579 0.03203447 0
vt 0.4351152 0.001953125 0
vt 0.7005732 0.5792375 0
vt 0.7271608 0.6355801 0
vt 0.481474 0.7687257 0
vt 0.1386768 0.01038597 0
vt 0.2152532 0.001953125 0
vt 0.2034376 0.1462728 0
vt 0.07479518 0.9867832 0
vt 0.834329 0.7294863 0
vt 0.689568 0.3461641 0
vt 0.09023493 0.9124828 0
vt 0.8085913 0.2559952 0
vt 0.8625433 0.2816034 0
vt 0.9818457 0.2182406 0
vt 0.9790718 0.2294912 0
vt 0.5575374 0.9148023 0
vt 0.4886664 0.8933938 0
vt 0.9834807 0.1541323 0
vt 0.6907421 0.4564421 0
vt 0.1402674 0.9895857 0
vt 0.9769796 0.2396969 0
vt 0.9924405 0.2448984 0
vt 0.3660622 0.0223315 0
vt 0.9978206 0.8661806 0
vt 0.3658837 0.005455468 0
vt 0.9937587 0.8495503 0
vt 0.8221893 0.8632216 0
vt 0.3741457 0.001953125 0
vt 0.3743957 0.01526737 0
vt 0.2118169 0.4406557 0
vt 0.6071905 0.4388244 0
vt 0.1512454 0.9064103 0
vt 0.3126936 0.4511909 0
vt 0.2377492 0.1923487 0
vt 0.338626 0.2028839 0
vt 0.4043139 0.8920581 0
vt 0.2837811 0.7280327 0
vt 0.1646948 0.723447 0
vt 0.7167107 0.6944946 0
vt 0.1829044 0.7174975 0
vt 0.3936992 0.5754667 0
vt 0.2908187 0.6606465 0
vt 0.189942 0.6501112 0
vt 0.1973585 0.5790968 0
vt 0.2982353 0.5896321 0
vt 0.5534403 0.2863095 0
vt 0.6079975 0.3163908 0
vt 0.105445 0.7513225 0
vt 0.07885742 0.807665 0
vt 0.9978675 0.1512029 0
vt 0.4224188 0.3148321 0
vt 0.7259078 0.9080099 0
vt 0.7304436 0.5648105 0
vt 0.7320599 0.02756135 0
vt 0.585521 0.5288324 0
vt 0.3615366 0.24274 0
vt 0.3587627 0.2314895 0
vt 0.7787242 0.2629234 0
vt 0.6737582 0.9054681 0
vt 0.3636288 0.2529457 0
vt 0.823255 0.5431442 0
vt 0.8248196 0.5353951 0
vt 0.8263459 0.5260148 0
vt 0.1564802 0.5156644 0
vt 0.3186179 0.4772386 0
vt 0.6699376 0.1928823 0
vt 0.3370192 0.5462273 0
vt 0.4668002 0.5569219 0
vt 0.6515363 0.261871 0
vt 0.2039832 0.5156644 0
vt 0.1486465 0.4406557 0
vt 0.711525 0.7043711 0
vt 0.3487027 0.4165316 0
vt 0.250832 0.06707854 0
vt 0.2308729 0.2581911 0
vt 0.2443608 0.1290423 0
vt 0.489093 0.2984341 0
vt 0.1096313 0.06707854 0
vt 0.1028299 0.001953125 0
vt 0.1161026 0.1290423 0
vt 0.6292236 0.3763981 0
vt 0.3593319 0.09204173 0
vt 0.381365 0.1544681 0
vt 0.177559 0.7174975 0
vt 0.8464344 0.564771 0
vt 0.3984116 0.5963806 0
vt 0.3048599 0.5261996 0
vt 0.05560345 0.5261996 0
vt 0.3476581 0.7368964 0
vt 0.3729033 0.6630692 0
vt 0.433115 0.8351541 0
vt 0.4076066 0.7684655 0
vt 0.07668224 0.7280327 0
vt 0.9181529 0.6364895 0
vt 0.4583601 0.5648114 0
vt 0.0152259 0.1395775 0
vt 0.09681451 0.8687302 0
vt 0.3517088 0.07761377 0
vt 0.00875461 0.07761377 0
vt 0.7092037 0.6966453 0
vt 0.3452375 0.1395775 0
vt 0.3585103 0.01248836 0
vt 0.6413235 0.551362 0
vt 0.3317496 0.2687263 0
vt 0.04776979 0.4511909 0
vt 0.3342087 0.9198597 0
vt 0.6547728 0.7343253 0
vt 0.7884293 0.7662132 0
vt 0.8412486 0.8340947 0
vt 0.2576335 0.001953125 0
vt 0.001953125 0.01248836 0
vt 0.5575374 0.7456199 0
vt 0.9186065 0.4459661 0
vt 0.6336008 0.7687257 0
vt 0.5458449 0.993574 0
vt 0.2803833 0.9266338 0
vt 0.6264084 0.8933938 0
vt 0.9809855 0.5960689 0
vt 0.346025 0.3247839 0
vt 0.9185251 0.1462728 0
vt 0.3457606 0.2287847 0
vt 0.2702978 0.9980469 0
vt 0.8275815 0.5171267 0
vt 0.6758753 0.9851128 0
vt 0.1105239 0.02584042 0
vt 0.7413475 0.9823104 0
vt 0.8141896 0.9796949 0
vt 0.602591 0.4549714 0
vt 0.1107228 0.01526737 0
vt 0.9945834 0.3115351 0
vt 0.9067095 0.001953125 0
vt 0.9157571 0.188196 0
vt 0.9181895 0.3015832 0
vt 0.9172687 0.2478978 0
vt 0.4233397 0.2611467 0
vt 0.4248513 0.2014448 0
vt 0.6835393 0.05055521 0
vt 0.9792515 0.6935082 0
vt 0.3571276 0.1673811 0
vt 0.7860118 0.001953125 0
vt 0.9963215 0.7673692 0
vt 0.9044076 0.1501914 0
vt 0.6901956 0.4042334 0
vt 0.9050352 0.092122 0
vt 0.03220286 0.9146567 0
vt 0.1423845 0.9099409 0
vt 0.9038611 0.2024001 0
vt 0.5357594 0.922161 0
vt 0.815879 0.5169655 0
vt 0.7839399 0.9101839 0
vt 0.7475135 0.4909495 0
vt 0.8513989 0.8033473 0
vt 0.001953125 0.9841677 0
vt 0.983286 0.01038597 0
vt 0.1240952 0.1512029 0
vt 0.9110639 0.3045973 0
vt 0.6759967 0.191924 0
vt 0.3481678 0.2581472 0
vt 0.8375928 0.9102241 0
vt 0.8207577 0.8764247 0
vt 0.8243688 0.8874351 0
vt 0.9942095 0.5732799 0
vt 0.996389 0.5490664 0
vt 0.9978206 0.5622695 0
vt 0.827581 0.8973455 0
vt 0.9909973 0.5831903 0
vt 0.9948478 0.2155359 0
vt 0.9909968 0.8312819 0
vt 0.1109728 0.001953125 0
vt 0.1192347 0.005455468 0
vt 0.3638557 0.01474022 0
vt 0.1212628 0.01474022 0
vt 0.9922324 0.84017 0
vt 0.9953233 0.8572994 0
vt 0.3745946 0.02584042 0
vt 0.1190562 0.0223315 0
vt 0.8207577 0.5520254 0
#end 194 textures vertices 

#begin 54 normals 
vn 0 1 0
vn 0 0.8617 0.5074
vn -1 0 0
vn 0 -1 -0
vn 1 -0 0
vn 0 0.9 -0.4358
vn 0 -0.4248 -0.9053
vn 0 -0.3593 0.9332
vn 0 0.385 -0.9229
vn 0 0.3517 0.9361
vn 0 -0.8712 0.4909
vn 0 -0.9166 -0.3998
vn 0.2788 -0.5122 0.8124
vn 0.161 0.5012 -0.8502
vn 0.9972 0.0746 0.0093
vn 0.4398 0.4158 0.796
vn 0.0262 -0.9996 -0.0073
vn 0.4189 0.9074 -0.0351
vn 0.9996 -0.029 0.0004
vn 0.1398 -0.4273 -0.8932
vn 0.3593 0.4281 0.8292
vn 0.997 0.0742 0.0238
vn 0.0419 0.5028 -0.8634
vn 0.2955 -0.9532 0.0634
vn 0.9844 0.1758 0.0111
vn 0.337 0.6817 0.6494
vn 0.3094 0.4343 0.8459
vn 0.0379 0.0044 0.9993
vn 0.0419 -0 0.9991
vn 0.0422 0.0006 0.9991
vn 0.0374 0.0042 0.9993
vn 0.3604 0.9325 -0.0245
vn 0.9988 -0.0389 0.0283
vn -0.2788 -0.5122 0.8124
vn -0.161 0.5012 -0.8502
vn -0.9972 0.0746 0.0093
vn -0.4398 0.4158 0.796
vn -0.0262 -0.9996 -0.0073
vn -0.4189 0.9074 -0.0351
vn -0.9996 -0.029 0.0004
vn -0.1398 -0.4273 -0.8932
vn -0.3593 0.4281 0.8292
vn -0.997 0.0742 0.0238
vn -0.0419 0.5028 -0.8634
vn -0.2955 -0.9532 0.0634
vn -0.9844 0.1758 0.0111
vn -0.337 0.6817 0.6494
vn -0.3094 0.4343 0.8459
vn -0.0379 0.0044 0.9993
vn -0.0422 0.0006 0.9991
vn -0.0419 -0 0.9991
vn -0.0374 0.0042 0.9993
vn -0.3604 0.9325 -0.0245
vn -0.9988 -0.0389 0.0283
#end 54 normals 

#begin 74 faces
o Cube:001
usemtl Material:001
s 1
f 1/88/1 2/122/1 3/3/1 4/4/1 
f 5/5/2 4/4/2 3/3/2 6/6/2 
f 6/117/3 3/124/3 2/2/3 7/7/3 
f 8/8/4 9/89/4 10/126/4 11/11/4 
f 12/12/5 1/1/5 4/100/5 5/99/5 
f 7/105/6 2/122/6 1/88/6 12/81/6 
f 13/13/7 14/14/7 15/15/7 16/16/7 
f 16/83/5 15/86/5 17/17/5 18/18/5 
f 19/19/3 20/20/3 14/107/3 13/103/3 
f 18/95/8 17/97/8 20/113/8 19/116/8 
f 14/14/9 7/105/9 12/81/9 15/15/9 
f 15/86/5 12/12/5 5/99/5 17/17/5 
f 20/20/3 6/117/3 7/7/3 14/107/3 
f 17/97/10 5/5/10 6/6/10 20/113/10 
f 10/96/11 18/95/11 19/116/11 11/128/11 
f 11/120/3 19/19/3 13/103/3 8/112/3 
f 9/9/5 16/83/5 18/18/5 10/10/5 
f 8/110/12 13/13/12 16/16/12 9/101/12 
f 21/172/13 22/22/13 23/23/13 24/24/13 
f 25/25/14 26/170/14 27/162/14 28/28/14 
f 28/160/15 27/27/15 29/29/15 30/30/15 
f 30/151/16 29/149/16 31/31/16 32/32/16 
f 33/33/17 34/34/17 21/21/17 24/129/17 
f 27/169/18 26/26/18 35/155/18 29/158/18 
f 34/166/19 36/36/19 22/173/19 21/130/19 
f 33/139/20 37/37/20 36/163/20 34/133/20 
f 22/150/21 30/151/21 32/32/21 38/38/21 
f 36/36/22 28/160/22 30/30/22 22/173/22 
f 37/37/23 25/25/23 28/28/23 36/163/23 
f 39/176/24 38/182/24 40/191/24 41/41/24 
f 32/178/25 31/177/25 42/190/25 43/43/25 
f 29/149/26 35/35/26 44/184/26 31/31/26 
f 23/147/27 22/150/27 38/38/27 39/39/27 
f 43/188/28 42/42/29 45/45/29 46/46/30 
f 40/40/31 43/188/28 46/46/30 41/192/31 
f 31/177/32 44/44/32 45/185/32 42/190/32 
f 38/182/33 32/178/33 43/43/33 40/191/33 
f 47/47/1 48/92/1 49/121/1 50/50/1 
f 51/51/2 52/52/2 49/121/2 48/92/2 
f 52/114/5 53/53/5 50/123/5 49/49/5 
f 54/111/4 55/125/4 56/56/4 57/102/4 
f 58/58/3 51/98/3 48/48/3 47/85/3 
f 53/104/6 58/87/6 47/47/6 50/50/6 
f 59/59/7 60/60/7 61/61/7 62/62/7 
f 60/82/3 63/63/3 64/64/3 61/84/3 
f 65/65/5 59/109/5 62/108/5 66/66/5 
f 63/91/8 65/115/8 66/118/8 64/93/8 
f 62/62/9 61/61/9 58/87/9 53/104/9 
f 61/84/3 64/64/3 51/98/3 58/58/3 
f 66/66/5 62/108/5 53/53/5 52/114/5 
f 64/93/10 66/118/10 52/52/10 51/51/10 
f 56/127/11 55/119/11 65/115/11 63/91/11 
f 55/55/5 54/106/5 59/109/5 65/65/5 
f 57/90/3 56/94/3 63/63/3 60/82/3 
f 54/54/12 57/57/12 60/60/12 59/59/12 
f 67/67/34 24/137/34 23/148/34 68/171/34 
f 25/143/35 69/69/35 70/167/35 26/144/35 
f 69/159/36 71/71/36 72/157/36 70/161/36 
f 71/152/37 73/73/37 74/74/37 72/153/37 
f 33/33/38 24/129/38 67/131/38 75/134/38 
f 70/70/39 72/72/39 35/145/39 26/168/39 
f 75/75/40 67/174/40 68/154/40 76/164/40 
f 33/132/41 75/165/41 76/76/41 37/141/41 
f 68/68/42 77/77/42 73/73/42 71/152/42 
f 76/164/43 68/154/43 71/71/43 69/159/43 
f 37/141/44 76/76/44 69/69/44 25/143/44 
f 39/135/45 41/194/45 78/78/45 77/183/45 
f 73/179/46 79/79/46 80/80/46 74/181/46 
f 72/153/47 74/74/47 44/138/47 35/156/47 
f 23/136/48 39/175/48 77/77/48 68/68/48 
f 79/189/49 46/146/50 45/186/51 80/187/51 
f 78/193/52 41/142/52 46/146/50 79/189/49 
f 74/181/53 80/80/53 45/140/53 44/180/53 
f 77/183/54 78/78/54 79/79/54 73/179/54 
#end 74 faces

#begin properties
#ZOMPROPERTIES_02 table {Mesh table {SymPlane table {Point vector3d 0 0 0 Normal vector3d 1 0 0 Threshold double 0.01 Enabled bool true EdgeID int -1 SymEdgeID int -1 UPos double 0.5 LocalMode bool false } RootGroup CSubMeshGroup {Children table {Tile_0_0 CSubMeshGroup {Children table {} BBoxUV box3d 0 0 0 0 0 0 BBox3D box3d 0 0 0 0 0 0 AreaUV double 0.6306924 Area3D double 0 IsRoot bool false TopoStable table {Selected bool false Box box3d 0 1 0 1 0 1 U int 0 V int 0 NU int 0 NV int 0 Tiling vector3d 1 1 1 TileRatioMode string "1:1" } IsTile bool true PolyIDs ints { 0 1 13 9 14 5 10 6 17 2 12 8 15 3 4 11 7 16 18 19 28 25 20 27 24 21 31 26 32 22 59 23 29 36 30 35 33 34 37 38 50 46 51 42 47 43 54 39 49 45 52 40 41 48 44 53 55 56 65 62 57 64 61 58 68 63 69 60 66 73 67 72 70 71 } } } BBoxUV box3d 0 0 0 0 0 0 BBox3D box3d 0 0 0 0 0 0 AreaUV double 0 Area3D double 0 IsRoot bool true TopoStable table {Selected bool false Box box3d 0 1 0 1 0 1 U int 0 V int 0 NU int 1 NV int 1 Tiling vector3d 1 1 1 TileRatioMode string "1:1" Pack table {Rotate table {Mode int 2 Min double 0 Max double 180 Step double 0 } SpacingSize double 0.00390625 MarginSize double 0.001953125 Resolution int 200 Scaling table {Mode int 0 } LayoutScalingMode int 2 MaxMutations int 1 } } IsTile bool false PolyIDs ints { } } Maps table {Density table {PrimType string "Polygon" Size int 1 DefaultValue double 1 ScaleType string "Log" Mergeode string "Average" MinValue double 0.1 MaxValue double 4 Data doubles { r 74 1 } } Pin table {PrimType string "Vertex" Size int 1 DefaultValue double 0 ScaleType string "Normalized" Mergeode string "Max" MinValue double 0 MaxValue double 1 Data doubles { r 194 0 } } Protect table {PrimType string "Vertex" Size int 1 DefaultValue double 0 ScaleType string "Normalized" Mergeode string "Average" MinValue double -1 MaxValue double 1 Data doubles { r 194 0 } } } } }
#end properties

#begin 0 fatal error vertex (that RizomUV cannot handle)
#end 0 fatal error vertex (that RizomUV cannot handle)

#begin 0 error vertex
#end 0 error vertex
